<svg xmlns="http://www.w3.org/2000/svg" width="1024" height="1024" version="1.1"><path fill="#FCF4E3" d="M0 0 C337.92 0 675.84 0 1024 0 C1024 337.92 1024 675.84 1024 1024 C686.08 1024 348.16 1024 0 1024 C0 686.08 0 348.16 0 0 Z" transform="translate(0,0)"/><path fill="#02213E" d="M0 0 C3.49589898 2.83564615 6.74244095 5.89051181 10 9 C10.33 2.07 10.66 -4.86 11 -12 C27.83 -12 44.66 -12 62 -12 C62.02254466 12.23411804 62.04097779 36.46822763 62.05181217 60.70235348 C62.05697573 71.95383516 62.06401956 83.20530989 62.07543945 94.45678711 C62.08538447 104.2597854 62.09185299 114.06277865 62.09408849 123.86578184 C62.09539591 129.05980367 62.09848371 134.25381107 62.10573006 139.44782829 C62.11248741 144.33063221 62.11461755 149.21341568 62.11310768 154.09622383 C62.11338414 155.89380631 62.11539095 157.69138944 62.11920547 159.4889679 C62.12413828 161.93215962 62.12299983 164.37527287 62.12025452 166.81846619 C62.12462378 167.8996715 62.12462378 167.8996715 62.12908131 169.00271934 C62.11412121 173.88587879 62.11412121 173.88587879 61 175 C59.4706537 175.09839214 57.93680434 175.12798539 56.40429688 175.12939453 C54.93772644 175.13412277 54.93772644 175.13412277 53.44152832 175.13894653 C52.37801147 175.1369223 51.31449463 175.13489807 50.21875 175.1328125 C48.59302063 175.13424759 48.59302063 175.13424759 46.93444824 175.13571167 C44.6377761 175.13639365 42.34110205 175.13453811 40.04443359 175.13037109 C36.51525572 175.12502312 32.98620513 175.1303155 29.45703125 175.13671875 C27.23177055 175.13605797 25.00650993 175.13477682 22.78125 175.1328125 C21.71773315 175.13483673 20.65421631 175.13686096 19.55847168 175.13894653 C18.58075806 175.13579437 17.60304443 175.13264221 16.59570312 175.12939453 C15.73046021 175.12859894 14.86521729 175.12780334 13.97375488 175.12698364 C12 175 12 175 11 174 C10.84313751 172.44051458 10.74923361 170.87457332 10.68359375 169.30859375 C10.62075195 167.89223633 10.62075195 167.89223633 10.55664062 166.44726562 C10.51732422 165.45404297 10.47800781 164.46082031 10.4375 163.4375 C10.39431641 162.44041016 10.35113281 161.44332031 10.30664062 160.41601562 C10.20019702 157.9441585 10.09818072 155.4721969 10 153 C9.52006592 153.52158691 9.04013184 154.04317383 8.5456543 154.58056641 C-5.33344354 169.45088872 -25.25340633 179.47102197 -45.65234375 180.27734375 C-72.36071699 180.89529147 -96.12293246 173.40013373 -116 155 C-135.58226068 135.92802624 -144.7929486 109.3836854 -145.29223633 82.5012207 C-145.47014029 56.15214336 -137.74181274 31.94681814 -120 12 C-119.33613281 11.24203125 -118.67226563 10.4840625 -117.98828125 9.703125 C-111.82657286 3.09722691 -104.72651761 -1.45289998 -97 -6 C-96.16726563 -6.495 -95.33453125 -6.99 -94.4765625 -7.5 C-64.89827585 -23.65196541 -26.60328053 -19.95840748 0 0 Z" transform="translate(390,486)"/><path fill="#F6B215" d="M0 0 C1.06987389 -0.00679667 1.06987389 -0.00679667 2.1613614 -0.01373065 C4.54564411 -0.02636669 6.92969817 -0.02475481 9.31401062 -0.02310181 C11.02588697 -0.02908759 12.73776063 -0.03589325 14.44963074 -0.04345703 C19.09643227 -0.06111989 23.74316014 -0.06581255 28.389992 -0.0670886 C31.29454008 -0.06851068 34.19906946 -0.07278136 37.1036129 -0.07808304 C47.24065209 -0.09658474 57.3776387 -0.10475353 67.51469421 -0.10317993 C76.95721777 -0.10197871 86.39951267 -0.12307681 95.84197837 -0.15466726 C103.95424991 -0.18083825 112.06644681 -0.19154687 120.17876023 -0.19026911 C125.0214496 -0.18975969 129.86393578 -0.19543181 134.70658302 -0.21662521 C139.26292836 -0.23602128 143.818877 -0.23612274 148.37523651 -0.22159195 C150.04410826 -0.2195044 151.71300492 -0.22420156 153.38183403 -0.23631287 C170.45553615 -0.35216199 170.45553615 -0.35216199 177.83232117 6.01351929 C178.5013446 6.85076538 178.5013446 6.85076538 179.18388367 7.70492554 C179.87611023 8.53830444 179.87611023 8.53830444 180.58232117 9.38851929 C183.10433293 13.25185578 184.05848505 16.74557057 184.0763092 21.33256531 C184.08910416 22.82745987 184.08910416 22.82745987 184.10215759 24.35255432 C184.10079803 25.97584404 184.10079803 25.97584404 184.09941101 27.63192749 C184.10612823 28.78048218 184.11284546 29.92903687 184.11976624 31.11239624 C184.13876758 34.91021041 184.1426716 38.70784804 184.14482117 42.50570679 C184.15124777 45.14740573 184.15797603 47.78910395 184.16499329 50.43080139 C184.17777428 55.96969755 184.18075924 61.50854592 184.17948914 67.04745483 C184.17828854 73.436256 184.19937706 79.8247189 184.23097646 86.21343452 C184.2603518 92.3734685 184.26746329 98.53334104 184.26626968 104.69344139 C184.26862777 107.30767383 184.27746288 109.92190885 184.29293442 112.53609657 C184.31256547 116.19592846 184.30676647 119.85489366 184.29472351 123.51473999 C184.30596252 124.59086044 184.31720154 125.6669809 184.32878113 126.77571106 C184.26720156 134.15335703 183.18293165 139.79275982 177.84403992 145.29086304 C176.86757507 145.95988647 176.86757507 145.95988647 175.87138367 146.64242554 C175.22298523 147.10390991 174.57458679 147.56539429 173.90653992 148.04086304 C169.45405302 150.64436562 165.88833639 151.51491488 160.7278595 151.47860718 C159.50578293 151.47531906 158.28370636 151.47203094 157.02459717 151.46864319 C155.67811478 151.45506077 154.33163349 151.44137 152.9851532 151.42758179 C151.56050062 151.42050504 150.13584264 151.4144533 148.71118164 151.40934753 C145.64571105 151.39713728 142.58033329 151.37957229 139.51491165 151.35842896 C134.65445993 151.32686595 129.79415239 151.31908684 124.93360901 151.31674194 C124.11161235 151.31622833 123.28961569 151.31571472 122.44271004 151.31518555 C120.76177345 151.31414405 119.08083683 151.31313979 117.3999002 151.31217194 C106.09000292 151.30429365 94.78060297 151.27933246 83.47099304 151.19564819 C75.83536078 151.13933336 68.20052919 151.11901536 60.56470382 151.1388483 C56.53101335 151.14787894 52.49919924 151.13914174 48.46580887 151.08605957 C24.68228728 150.49989475 24.68228728 150.49989475 4.80888367 162.26742554 C3.11482993 163.44315519 1.4005449 164.59133552 -0.34736633 165.68539429 C-1.07955383 166.15396851 -1.81174133 166.62254272 -2.56611633 167.10531616 C-3.26736633 167.55068726 -3.96861633 167.99605835 -4.69111633 168.45492554 C-5.78939758 169.18679077 -5.78939758 169.18679077 -6.90986633 169.93344116 C-10.59580818 172.25360991 -12.58432737 173.25940902 -17.03486633 173.31820679 C-20.62865294 172.1217605 -21.3504435 171.48790154 -23.19111633 168.26742554 C-23.57143307 165.42374039 -23.57143307 165.42374039 -23.57879639 162.06973267 C-23.58870102 160.79684387 -23.59860565 159.52395508 -23.60881042 158.2124939 C-23.60457232 156.80404567 -23.60001446 155.39559837 -23.59516907 153.9871521 C-23.6008722 152.5020191 -23.60783624 151.01689049 -23.6159668 149.5317688 C-23.63392474 145.4984762 -23.63272432 141.46540086 -23.62702441 137.43208027 C-23.62393479 134.06251259 -23.63002284 130.69298678 -23.63606316 127.32342505 C-23.65011689 119.37015287 -23.6485415 111.41698806 -23.63716125 103.4637146 C-23.62569299 95.26802549 -23.63973189 87.07266411 -23.66655773 78.87701821 C-23.68874232 71.83480919 -23.6953455 64.79270282 -23.68948132 57.75046134 C-23.68611544 53.5471562 -23.68850147 49.34406087 -23.70573235 45.14078522 C-23.72124232 41.18440041 -23.71720146 37.22849887 -23.6984272 33.27213287 C-23.69475174 31.82418915 -23.69781931 30.37620932 -23.70831299 28.92829895 C-23.76841529 19.94582725 -23.51730271 13.28076904 -17.44502258 6.24398804 C-16.88685852 5.79797241 -16.32869446 5.35195679 -15.75361633 4.89242554 C-15.1980304 4.43094116 -14.64244446 3.96945679 -14.07002258 3.49398804 C-9.44720678 0.47618313 -5.47211621 0.0143792 0 0 Z" transform="translate(273.1911163330078,276.7325744628906)"/><path fill="#02213E" d="M0 0 C1.60920067 1.34818072 3.21367743 2.70202786 4.8125 4.0625 C5.82763672 4.85914063 5.82763672 4.85914063 6.86328125 5.671875 C22.13279997 18.03437112 31.00437767 36.41399317 35.8125 55.0625 C36.05871094 56.00867188 36.30492187 56.95484375 36.55859375 57.9296875 C41.85792625 83.14720078 36.80643255 110.99096986 23.8125 133.0625 C20.98859318 137.21704354 17.96877111 141.1566877 14.8125 145.0625 C14.09513672 146.02736328 14.09513672 146.02736328 13.36328125 147.01171875 C-0.26835516 164.57319629 -24.20152436 174.53271241 -45.66796875 177.59375 C-73.38585044 180.84093028 -100.18841134 174.38829662 -122.34130859 157.15063477 C-140.56292279 142.40561988 -153.52926359 120.22659885 -156.89013672 96.91308594 C-159.77604769 69.24814632 -156.34263181 41.72462938 -139.1875 19.0625 C-105.32408261 -21.23393741 -43.54189114 -34.291717 0 0 Z" transform="translate(801.1875,487.9375)"/><path fill="#03223F" d="M0 0 C1.35568336 0.00333092 1.35568336 0.00333092 2.73875427 0.00672913 C3.75973709 0.00680466 4.78071991 0.00688019 5.8326416 0.00695801 C6.94304306 0.01211929 8.05344452 0.01728058 9.19749451 0.02259827 C10.89336952 0.02472069 10.89336952 0.02472069 12.62350464 0.02688599 C16.25105891 0.03250433 19.8785525 0.04505994 23.50608826 0.05775452 C25.95856133 0.06276715 28.41103536 0.06733047 30.86351013 0.07142639 C36.89022371 0.08247971 42.91690165 0.09923568 48.94358826 0.12025452 C48.96645364 33.99005934 48.98408598 67.85986226 48.99465359 101.72967308 C48.99590436 105.72404334 48.99719868 109.71841358 48.9985199 113.71278381 C48.99878221 114.50802503 48.99904452 115.30326625 48.99931478 116.12260569 C49.00367167 129.01618623 49.01155932 141.90976234 49.02074105 154.80334025 C49.03007706 168.02335987 49.03564375 181.24337716 49.03767675 194.46339995 C49.03905209 202.62751387 49.04340326 210.79161525 49.05150472 218.95572532 C49.05739218 225.20527359 49.05804735 231.45481221 49.05669594 237.70436287 C49.05697248 240.27597252 49.05898034 242.84758262 49.06279373 245.41918945 C49.06772373 248.91334802 49.06658912 252.40745166 49.06384277 255.90161133 C49.06675561 256.93369073 49.06966846 257.96577014 49.07266957 259.02912468 C49.07067852 259.95769895 49.06868747 260.88627322 49.06663609 261.84298611 C49.06720567 263.05448382 49.06720567 263.05448382 49.06778675 264.29045624 C48.94358826 266.12025452 48.94358826 266.12025452 47.94358826 267.12025452 C46.38359778 267.21872418 44.81918281 267.24824069 43.25608826 267.24964905 C42.25835388 267.25280121 41.26061951 267.25595337 40.23265076 267.25920105 C39.14726013 267.25717682 38.06186951 267.25515259 36.94358826 267.25306702 C35.83757263 267.25402374 34.73155701 267.25498047 33.59202576 267.25596619 C31.24827518 267.25664818 28.90452273 267.25479256 26.56077576 267.25062561 C22.95917038 267.24527765 19.35768972 267.25056998 15.75608826 267.25697327 C13.48525465 267.25631249 11.21442111 267.25503133 8.94358826 267.25306702 C7.85819763 267.25509125 6.77280701 267.25711548 5.65452576 267.25920105 C4.65679138 267.25604889 3.65905701 267.25289673 2.63108826 267.24964905 C1.74808044 267.24885345 0.86507263 267.24805786 -0.04469299 267.24723816 C-2.05641174 267.12025452 -2.05641174 267.12025452 -3.05641174 266.12025452 C-3.15387776 264.703364 -3.18196612 263.2816356 -3.18225288 261.86139679 C-3.18486063 260.93692261 -3.18746838 260.01244843 -3.19015515 259.05995989 C-3.18792443 258.03245355 -3.18569371 257.00494721 -3.18339539 255.94630432 C-3.18495538 254.86401409 -3.18651537 253.78172385 -3.18812263 252.66663694 C-3.19213774 249.00988658 -3.18894101 245.35317713 -3.18580627 241.69642639 C-3.18716009 239.08709692 -3.18893991 236.47776764 -3.19111633 233.86843872 C-3.19557469 227.49877017 -3.19459728 221.12911337 -3.19170369 214.75944436 C-3.18944991 209.58498991 -3.18913703 204.41053878 -3.19022751 199.23608398 C-3.19038074 198.50103747 -3.19053397 197.76599095 -3.19069185 197.0086703 C-3.19101156 195.51567256 -3.19133577 194.02267483 -3.19166444 192.52967709 C-3.19451942 178.51327756 -3.19123193 164.49688456 -3.18586408 150.48048609 C-3.18139602 138.44064652 -3.18217195 126.40081658 -3.18678284 114.36097717 C-3.19212828 100.39645176 -3.19424473 86.43193208 -3.19117057 72.4674058 C-3.19085201 70.97974555 -3.19053764 69.4920853 -3.19022751 68.00442505 C-3.19007323 67.27237153 -3.18991896 66.54031801 -3.18976001 65.78608105 C-3.18889476 60.61483226 -3.19035789 55.44358709 -3.19270706 50.27233887 C-3.19579634 43.31870289 -3.19361279 36.3650855 -3.18781281 29.41145134 C-3.18648442 26.85112984 -3.18688064 24.29080682 -3.18907547 21.73048592 C-3.1917839 18.25170433 -3.18840962 14.77298243 -3.18339539 11.29420471 C-3.18562611 10.26669837 -3.18785683 9.23919204 -3.19015515 8.18054914 C-3.1875474 7.25607497 -3.18493965 6.33160079 -3.18225288 5.37911224 C-3.18209053 4.57502694 -3.18192818 3.77094163 -3.18176091 2.9424901 C-3.00072203 0.31067765 -2.62774228 0.15366469 0 0 Z" transform="translate(573.0564117431641,393.87974548339844)"/><path fill="#012240" d="M0 0 C7.24486551 -0.02526739 14.48971974 -0.0428318 21.73461914 -0.05493164 C24.20142033 -0.05997356 26.66821852 -0.06680691 29.13500977 -0.07543945 C32.67204529 -0.08751125 36.20904145 -0.09322956 39.74609375 -0.09765625 C40.85649521 -0.10281754 41.96689667 -0.10797882 43.11094666 -0.11329651 C44.64242088 -0.11340981 44.64242088 -0.11340981 46.20483398 -0.11352539 C47.10862289 -0.115746 48.0124118 -0.11796661 48.94358826 -0.12025452 C51 0 51 0 52 1 C52.09746602 2.41689051 52.12555438 3.83861892 52.12584114 5.25885773 C52.12844889 6.1833319 52.13105664 7.10780608 52.13374341 8.06029463 C52.13151268 9.08780097 52.12928196 10.1153073 52.12698364 11.1739502 C52.12854363 12.25624043 52.13010362 13.33853066 52.13171089 14.45361757 C52.135726 18.11036794 52.13252927 21.76707739 52.12939453 25.42382812 C52.13074835 28.0331576 52.13252816 30.64248688 52.13470459 33.2518158 C52.13916294 39.62148434 52.13818553 45.99114114 52.13529195 52.36081016 C52.13303817 57.5352646 52.13272528 62.70971574 52.13381577 67.88417053 C52.133969 68.61921705 52.13412223 69.35426356 52.13428011 70.11158422 C52.13459982 71.60458195 52.13492403 73.09757969 52.1352527 74.59057742 C52.13810768 88.60697696 52.13482018 102.62336996 52.12945233 116.63976842 C52.12498428 128.679608 52.1257602 140.71943794 52.13037109 152.75927734 C52.13571654 166.72380275 52.13783299 180.68832243 52.13475883 194.65284872 C52.13444026 196.14050897 52.13412589 197.62816922 52.13381577 199.11582947 C52.13358435 200.21390975 52.13358435 200.21390975 52.13334826 201.33417347 C52.13248302 206.50542226 52.13394615 211.67666742 52.13629532 216.84791565 C52.13938459 223.80155163 52.13720105 230.75516901 52.13140106 237.70880318 C52.13007267 240.26912467 52.1304689 242.8294477 52.13266373 245.3897686 C52.13537216 248.86855018 52.13199788 252.34727209 52.12698364 255.8260498 C52.12921436 256.85355614 52.13144509 257.88106248 52.13374341 258.93970537 C52.12983178 260.32641664 52.12983178 260.32641664 52.12584114 261.74114227 C52.12567879 262.54522758 52.12551644 263.34931289 52.12534916 264.17776442 C52 266 52 266 51 267 C49.44000952 267.09846967 47.87559456 267.12798618 46.3125 267.12939453 C45.31476562 267.13254669 44.31703125 267.13569885 43.2890625 267.13894653 C42.20367188 267.1369223 41.11828125 267.13489807 40 267.1328125 C38.89398437 267.13376923 37.78796875 267.13472595 36.6484375 267.13571167 C34.30468692 267.13639367 31.96093447 267.13453804 29.6171875 267.13037109 C26.01558212 267.12502314 22.41410147 267.13031547 18.8125 267.13671875 C16.54166639 267.13605797 14.27083286 267.13477682 12 267.1328125 C10.91460937 267.13483673 9.82921875 267.13686096 8.7109375 267.13894653 C7.71320313 267.13579437 6.71546875 267.13264221 5.6875 267.12939453 C4.80449219 267.12859894 3.92148437 267.12780334 3.01171875 267.12698364 C1 267 1 267 0 266 C-0.09659172 264.57692835 -0.12371842 263.14907742 -0.12304783 261.72273159 C-0.12503888 260.79415732 -0.12702993 259.86558305 -0.12908131 258.90887016 C-0.12616847 257.87679076 -0.12325563 256.84471135 -0.12025452 255.78135681 C-0.12110894 254.69427746 -0.12196337 253.60719811 -0.12284368 252.48717695 C-0.12450169 248.81427026 -0.11897188 245.1414084 -0.11352539 241.46850586 C-0.11324356 238.84770204 -0.11340117 236.22689814 -0.1139679 233.60609436 C-0.11449332 227.9481096 -0.11134462 222.29013633 -0.10573006 216.63215446 C-0.09761751 208.45157189 -0.09500009 200.27099491 -0.09374207 192.09040875 C-0.09155116 178.81930255 -0.08489003 165.54820248 -0.07543945 152.27709961 C-0.06626633 139.38224315 -0.05918501 126.48738836 -0.05493164 113.5925293 C-0.05466892 112.7982512 -0.05440619 112.0039731 -0.05413551 111.18562596 C-0.05283051 107.20113365 -0.05156679 103.21664133 -0.05032361 99.232149 C-0.03994979 66.15476154 -0.02233043 33.07738159 0 0 Z" transform="translate(486,394)"/><path fill="#FBF3E3" d="M0 0 C12.18226167 9.2510638 20.13713639 21.86705691 22.24609375 37.1328125 C23.34609586 51.37874149 20.94072896 65.50504734 12.24609375 77.1328125 C11.72144531 77.83792969 11.19679688 78.54304687 10.65625 79.26953125 C1.47071028 90.61637443 -12.34398191 97.44173047 -26.75390625 99.1328125 C-40.11580606 100.2137235 -53.17261578 96.08595702 -63.62890625 87.7578125 C-65.36036582 86.24216523 -67.07157152 84.70280892 -68.75390625 83.1328125 C-69.63175781 82.31876953 -69.63175781 82.31876953 -70.52734375 81.48828125 C-82.16516531 69.3270656 -84.36297919 53.51210178 -84.0625 37.50390625 C-83.47764173 23.48429535 -76.310967 11.7322426 -66.26953125 2.203125 C-46.65041513 -13.94304199 -20.82313808 -14.11838298 0 0 Z" transform="translate(379.75390625,522.8671875)"/><path fill="#FBF3E3" d="M0 0 C11.8696395 8.81687266 19.25081268 20.26875788 22.14453125 34.859375 C24.46935833 52.44802576 21.84400103 69.38384871 10.84375 83.79296875 C2.79752934 93.41656733 -6.8652802 99.25490385 -19.49609375 100.70849609 C-32.55547304 101.73090803 -45.23819852 99.84257885 -55.5859375 91.10546875 C-56.17761719 90.5640625 -56.76929688 90.02265625 -57.37890625 89.46484375 C-58.04277344 88.9028125 -58.70664062 88.34078125 -59.390625 87.76171875 C-70.02186908 78.12272412 -74.87998772 64.95701777 -75.69140625 50.87890625 C-76.04227978 41.09463114 -75.17221016 32.60896709 -71.37890625 23.46484375 C-71.05148437 22.60890625 -70.7240625 21.75296875 -70.38671875 20.87109375 C-65.69831826 10.05697291 -56.23267057 0.11645703 -45.37890625 -4.53515625 C-30.50265927 -9.69146497 -13.4480995 -8.67833022 0 0 Z" transform="translate(768.37890625,520.53515625)"/><path fill="#FCF4E3" d="M0 0 C3.9375 0.6875 3.9375 0.6875 5.98046875 2.89453125 C7.84751962 5.55908489 9.53415392 8.26144281 11.1875 11.0625 C17.99009012 21.80799267 27.62868803 27.7401368 39.9375 30.6875 C54.151561 31.88711653 65.82382524 29.96780808 77.39453125 21.03515625 C81.65724627 17.09983869 84.80639319 12.54330631 87.9375 7.6875 C91.82719521 1.74265239 91.82719521 1.74265239 93.9375 0.6875 C98.21265323 0.20352039 100.28252391 0.26449461 103.9375 2.625 C106.30895366 6.25628842 106.57794191 7.90800855 105.83203125 12.09765625 C100.84194745 26.54492944 87.96853765 36.82168446 74.9375 43.6875 C59.8387399 50.48093412 43.77272726 51.91015124 27.9375 46.6875 C18.46892649 42.87319473 11.02426944 38.00844095 3.9375 30.6875 C3.20660156 29.94242187 2.47570312 29.19734375 1.72265625 28.4296875 C-3.45179027 22.89871486 -8.20177672 17.07718875 -9.6875 9.5 C-8.48785082 4.10157871 -5.68323077 0.37180014 0 0 Z" transform="translate(306.0625,335.3125)"/><path fill="#09132A" d="M0 0 C7.24486551 -0.02526739 14.48971974 -0.0428318 21.73461914 -0.05493164 C24.20142033 -0.05997356 26.66821852 -0.06680691 29.13500977 -0.07543945 C32.67204529 -0.08751125 36.20904145 -0.09322956 39.74609375 -0.09765625 C40.85649521 -0.10281754 41.96689667 -0.10797882 43.11094666 -0.11329651 C44.64242088 -0.11340981 44.64242088 -0.11340981 46.20483398 -0.11352539 C47.10862289 -0.115746 48.0124118 -0.11796661 48.94358826 -0.12025452 C51 0 51 0 52 1 C52.09746602 2.41689051 52.12555438 3.83861892 52.12584114 5.25885773 C52.12844889 6.1833319 52.13105664 7.10780608 52.13374341 8.06029463 C52.13151268 9.08780097 52.12928196 10.1153073 52.12698364 11.1739502 C52.12854363 12.25624043 52.13010362 13.33853066 52.13171089 14.45361757 C52.135726 18.11036794 52.13252927 21.76707739 52.12939453 25.42382812 C52.13074835 28.0331576 52.13252816 30.64248688 52.13470459 33.2518158 C52.13916294 39.62148434 52.13818553 45.99114114 52.13529195 52.36081016 C52.13303817 57.5352646 52.13272528 62.70971574 52.13381577 67.88417053 C52.133969 68.61921705 52.13412223 69.35426356 52.13428011 70.11158422 C52.13459982 71.60458195 52.13492403 73.09757969 52.1352527 74.59057742 C52.13810768 88.60697696 52.13482018 102.62336996 52.12945233 116.63976842 C52.12498428 128.679608 52.1257602 140.71943794 52.13037109 152.75927734 C52.13571654 166.72380275 52.13783299 180.68832243 52.13475883 194.65284872 C52.13444026 196.14050897 52.13412589 197.62816922 52.13381577 199.11582947 C52.13358435 200.21390975 52.13358435 200.21390975 52.13334826 201.33417347 C52.13248302 206.50542226 52.13394615 211.67666742 52.13629532 216.84791565 C52.13938459 223.80155163 52.13720105 230.75516901 52.13140106 237.70880318 C52.13007267 240.26912467 52.1304689 242.8294477 52.13266373 245.3897686 C52.13537216 248.86855018 52.13199788 252.34727209 52.12698364 255.8260498 C52.12921436 256.85355614 52.13144509 257.88106248 52.13374341 258.93970537 C52.12983178 260.32641664 52.12983178 260.32641664 52.12584114 261.74114227 C52.12567879 262.54522758 52.12551644 263.34931289 52.12534916 264.17776442 C52 266 52 266 51 267 C49.44000952 267.09846967 47.87559456 267.12798618 46.3125 267.12939453 C45.31476562 267.13254669 44.31703125 267.13569885 43.2890625 267.13894653 C42.20367188 267.1369223 41.11828125 267.13489807 40 267.1328125 C38.89398437 267.13376923 37.78796875 267.13472595 36.6484375 267.13571167 C34.30468692 267.13639367 31.96093447 267.13453804 29.6171875 267.13037109 C26.01558212 267.12502314 22.41410147 267.13031547 18.8125 267.13671875 C16.54166639 267.13605797 14.27083286 267.13477682 12 267.1328125 C10.91460937 267.13483673 9.82921875 267.13686096 8.7109375 267.13894653 C7.71320313 267.13579437 6.71546875 267.13264221 5.6875 267.12939453 C4.80449219 267.12859894 3.92148437 267.12780334 3.01171875 267.12698364 C1 267 1 267 0 266 C-0.09659172 264.57692835 -0.12371842 263.14907742 -0.12304783 261.72273159 C-0.12503888 260.79415732 -0.12702993 259.86558305 -0.12908131 258.90887016 C-0.12616847 257.87679076 -0.12325563 256.84471135 -0.12025452 255.78135681 C-0.12110894 254.69427746 -0.12196337 253.60719811 -0.12284368 252.48717695 C-0.12450169 248.81427026 -0.11897188 245.1414084 -0.11352539 241.46850586 C-0.11324356 238.84770204 -0.11340117 236.22689814 -0.1139679 233.60609436 C-0.11449332 227.9481096 -0.11134462 222.29013633 -0.10573006 216.63215446 C-0.09761751 208.45157189 -0.09500009 200.27099491 -0.09374207 192.09040875 C-0.09155116 178.81930255 -0.08489003 165.54820248 -0.07543945 152.27709961 C-0.06626633 139.38224315 -0.05918501 126.48738836 -0.05493164 113.5925293 C-0.05466892 112.7982512 -0.05440619 112.0039731 -0.05413551 111.18562596 C-0.05283051 107.20113365 -0.05156679 103.21664133 -0.05032361 99.232149 C-0.03994979 66.15476154 -0.02233043 33.07738159 0 0 Z M1 2 C1 88.79 1 175.58 1 265 C17.17 265 33.34 265 50 265 C50 178.21 50 91.42 50 2 C33.83 2 17.66 2 1 2 Z" transform="translate(486,394)"/><path fill="#F5A804" d="M0 0 C1.09402719 3.28208158 1.10809087 5.63894482 1.08229065 9.0933075 C1.07525116 10.36796875 1.06821167 11.64263 1.06095886 12.95591736 C1.04797635 14.37124721 1.03489628 15.78657616 1.02172852 17.2019043 C1.01158588 18.69000969 1.00189219 20.17811821 0.99261475 21.66622925 C0.96613217 25.70935397 0.93335297 29.75240625 0.89946485 33.79547477 C0.8651234 38.01953339 0.83654281 42.24363083 0.80735779 46.46772766 C0.75120284 54.46812863 0.68984783 62.46848099 0.62663645 70.46882898 C0.55492979 79.57631461 0.48900208 88.68383919 0.42356598 97.7913717 C0.2888193 116.52763184 0.1467952 135.26383058 0 154 C-2.69664497 151.30335503 -2.25134394 149.94025336 -2.25396729 146.16775513 C-2.25960693 144.92549164 -2.26524658 143.68322815 -2.27105713 142.40332031 C-2.26716813 141.01904239 -2.26307176 139.63476504 -2.25878906 138.25048828 C-2.26149793 136.79857202 -2.26505828 135.34665714 -2.26940918 133.89474487 C-2.27854948 129.94427341 -2.27498178 125.99390607 -2.26865101 122.04343271 C-2.26359755 117.91330078 -2.26828081 113.78317793 -2.27142334 109.65304565 C-2.27506572 102.71415604 -2.27025764 95.77530894 -2.26074219 88.83642578 C-2.24986567 80.81233498 -2.25337627 72.78834587 -2.264395 64.76425755 C-2.27347038 57.8801264 -2.27475166 50.99602587 -2.26951766 44.11189067 C-2.26639824 39.99817226 -2.26598768 35.88450164 -2.27259064 31.77078629 C-2.27836682 27.90156166 -2.27436223 24.03246807 -2.26280212 20.1632576 C-2.26015663 18.74266274 -2.26091877 17.32205685 -2.26532745 15.90146637 C-2.27078859 13.96305229 -2.2627275 12.02461413 -2.25396729 10.08621216 C-2.25321323 9.00109407 -2.25245918 7.91597599 -2.25168228 6.79797554 C-2.00149307 4.01659859 -1.43719784 2.36524593 0 0 Z" transform="translate(252,289)"/><path fill="#EDECE4" d="M0 0 C0 0.66 0 1.32 0 2 C-3.13498292 3.85776765 -5.37471432 4.20140476 -9 4 C-9 4.66 -9 5.32 -9 6 C-11.64 6.33 -14.28 6.66 -17 7 C-16.67 6.01 -16.34 5.02 -16 4 C-13.34765625 3.0859375 -13.34765625 3.0859375 -10.0625 2.375 C-6.79942916 1.6516017 -3.25111848 0 0 0 Z M-23 7 C-21.02 7 -19.04 7 -17 7 C-17 7.33 -17 7.66 -17 8 C-18.98 8 -20.96 8 -23 8 C-23 7.67 -23 7.34 -23 7 Z" transform="translate(370,660)"/><path fill="#F7F8F4" d="M0 0 C4.67738207 4.45464959 6.36657886 7.41242017 7 14 C3.94998169 10.33997803 0 4.92148529 0 0 Z" transform="translate(826,515)"/><path fill="#EEECE7" d="M0 0 C0 0.66 0 1.32 0 2 C-5.95703125 3.7578125 -5.95703125 3.7578125 -8 4 C-8.99 3.34 -9.98 2.68 -11 2 C-9.5422647 1.664061 -8.08378894 1.33133376 -6.625 1 C-5.40683594 0.7215625 -5.40683594 0.7215625 -4.1640625 0.4375 C-2 0 -2 0 0 0 Z" transform="translate(312,471)"/><path fill="#E9E9E5" d="M0 0 C0 0.99 0 1.98 0 3 C-3.3 2.67 -6.6 2.34 -10 2 C-6.3558226 -0.4294516 -4.28758728 -0.16179575 0 0 Z" transform="translate(762,468)"/><path fill="#EFEEE8" d="M0 0 C0.66 0.33 1.32 0.66 2 1 C1.67 3.31 1.34 5.62 1 8 C0.01 7.34 -0.98 6.68 -2 6 C-1.34 4.02 -0.68 2.04 0 0 Z" transform="translate(836,593)"/></svg>