<svg xmlns="http://www.w3.org/2000/svg" width="1024" height="1024" version="1.1"><path fill="#FCF4E4" d="M0 0 C2.36810476 -0.0071381 4.73620787 -0.01484207 7.10430908 -0.02307129 C12.03557145 -0.03639556 16.96667409 -0.03814163 21.89794922 -0.03222656 C26.8718289 -0.02752819 31.84506925 -0.04130072 36.81884766 -0.07324219 C75.64850416 -0.31975436 111.80605027 2.41316953 149.640625 11.46875 C151.24333252 11.84290039 151.24333252 11.84290039 152.87841797 12.22460938 C201.0051171 23.55539222 247.0206334 42.50668778 289.640625 67.46875 C290.52943359 67.98614746 291.41824219 68.50354492 292.33398438 69.03662109 C303.77737996 75.71476281 314.87856266 82.7392876 325.640625 90.46875 C326.3919873 91.00757812 327.14334961 91.54640625 327.91748047 92.1015625 C339.13920039 100.18396879 350.03199359 108.59800378 360.640625 117.46875 C361.23149902 117.96052734 361.82237305 118.45230469 362.43115234 118.95898438 C375.62164357 129.97004922 388.03091017 141.78665282 400.203125 153.90625 C400.94079102 154.63924316 401.67845703 155.37223633 402.43847656 156.12744141 C407.04321423 160.74581497 411.4007527 165.51486141 415.640625 170.46875 C416.60239937 171.57462352 417.56461691 172.68011182 418.52734375 173.78515625 C444.01940344 203.25543368 465.80557506 235.18161819 484.48242188 269.36083984 C485.50582539 271.22341699 486.54836591 273.07545141 487.59375 274.92578125 C509.61938704 314.67372708 524.3234126 359.14873747 534.015625 403.40625 C534.17334381 404.11883972 534.33106262 404.83142944 534.49356079 405.56561279 C539.78968078 429.74628171 542.26535876 453.44780914 542.20703125 478.19921875 C542.20969514 480.27046649 542.21489434 482.34169769 542.22033066 484.41293985 C542.23712452 490.89622374 542.23397829 497.37927124 542.21704102 503.86254883 C542.20016553 510.44343295 542.21593837 517.02365131 542.2482639 523.6044628 C542.27538179 529.35327867 542.28212423 535.10189286 542.27374882 540.850766 C542.26893649 544.24087247 542.27263199 547.63027263 542.29153633 551.02037621 C542.58310079 612.75225603 523.17566854 674.79098813 497.640625 730.46875 C496.95775763 731.98672031 496.27541888 733.5049286 495.59375 735.0234375 C483.89476615 760.79237528 469.1586363 785.50926674 452.640625 808.46875 C452.10469727 809.21576172 451.56876953 809.96277344 451.01660156 810.73242188 C442.93148681 821.95841692 434.51711344 832.85815924 425.640625 843.46875 C424.89498291 844.36303711 424.89498291 844.36303711 424.13427734 845.27539062 C413.43262048 858.06801372 402.03111435 870.15234878 390.265625 881.96875 C389.52876465 882.7102832 388.7919043 883.45181641 388.03271484 884.21582031 C383.95022951 888.28633894 379.7723485 892.18235653 375.40478516 895.9453125 C373.23073739 897.82270775 371.12561558 899.76988597 369.015625 901.71875 C363.42522825 906.75690391 357.54029828 911.35417589 351.58740234 915.95019531 C349.60528647 917.4963153 347.64696275 919.06889443 345.69140625 920.6484375 C326.00412671 936.43802407 304.61599129 950.10001828 282.640625 962.46875 C281.15175781 963.31083008 281.15175781 963.31083008 279.6328125 964.16992188 C227.79274651 993.30559806 170.64166809 1012.77605514 111.91978455 1022.10658264 C110.22240785 1022.37630243 108.52900043 1022.67123716 106.83815002 1022.97923279 C94.00791776 1025.04861388 81.08979975 1024.81589627 68.12467313 1024.83619571 C66.0604449 1024.8398823 63.9962395 1024.84614409 61.93202019 1024.8531971 C54.67203619 1024.87760323 47.41212249 1024.89072021 40.15209961 1024.89428711 C33.48289497 1024.89789568 26.814158 1024.92761945 20.14509541 1024.96969169 C14.34559972 1025.00493809 8.54625451 1025.01984485 2.74665302 1025.02053314 C-0.68383426 1025.02130911 -4.1138457 1025.02923228 -7.54421806 1025.05853081 C-84.42437252 1025.60963186 -163.74812326 996.83173827 -229.359375 958.46875 C-230.25108398 957.94990234 -231.14279297 957.43105469 -232.06152344 956.89648438 C-243.50183508 950.21978785 -254.60007898 943.19622559 -265.359375 935.46875 C-266.1107373 934.92992187 -266.86209961 934.39109375 -267.63623047 933.8359375 C-278.85795039 925.75353121 -289.75074359 917.33949622 -300.359375 908.46875 C-300.95024902 907.97697266 -301.54112305 907.48519531 -302.14990234 906.97851562 C-315.34039357 895.96745078 -327.74966017 884.15084718 -339.921875 872.03125 C-340.65954102 871.29825684 -341.39720703 870.56526367 -342.15722656 869.81005859 C-346.76196423 865.19168503 -351.1195027 860.42263859 -355.359375 855.46875 C-356.32114937 854.36287648 -357.28336691 853.25738818 -358.24609375 852.15234375 C-383.71119649 822.71323009 -405.52340421 790.81715589 -424.15820312 756.65820312 C-425.25764623 754.65417756 -426.37609983 752.66224568 -427.5 750.671875 C-452.52596805 705.70079241 -467.90374892 654.83345796 -477.359375 604.46875 C-477.59689484 603.2045372 -477.83441467 601.9403244 -478.07913208 600.63780212 C-482.87401963 573.92993967 -483.1386472 547.37901744 -483.01123047 520.30615234 C-482.98274513 514.19513229 -482.99968613 508.08520128 -483.02843571 501.97421837 C-483.13717574 474.7224198 -482.32215808 448.29900425 -477.359375 421.46875 C-477.18563354 420.48104614 -477.01189209 419.49334229 -476.83288574 418.47570801 C-475.908988 413.23233172 -474.85283079 408.03478751 -473.671875 402.84375 C-473.50740875 402.10244843 -473.3429425 401.36114685 -473.17349243 400.59738159 C-465.08044996 364.22231936 -452.88911761 329.33050196 -437.359375 295.46875 C-436.67650763 293.95077969 -435.99416888 292.4325714 -435.3125 290.9140625 C-423.61351615 265.14512472 -408.8773863 240.42823326 -392.359375 217.46875 C-391.82344727 216.72173828 -391.28751953 215.97472656 -390.73535156 215.20507812 C-382.65023681 203.97908308 -374.23586344 193.07934076 -365.359375 182.46875 C-364.86228027 181.87255859 -364.36518555 181.27636719 -363.85302734 180.66210938 C-353.15137048 167.86948628 -341.74986435 155.78515122 -329.984375 143.96875 C-329.24751465 143.2272168 -328.5106543 142.48568359 -327.75146484 141.72167969 C-323.66897951 137.65116106 -319.4910985 133.75514347 -315.12353516 129.9921875 C-312.94948739 128.11479225 -310.84436558 126.16761403 -308.734375 124.21875 C-303.14397825 119.18059609 -297.25904828 114.58332411 -291.30615234 109.98730469 C-289.32403647 108.4411847 -287.36571275 106.86860557 -285.41015625 105.2890625 C-265.72287671 89.49947593 -244.33474129 75.83748172 -222.359375 63.46875 C-221.36679687 62.90736328 -220.37421875 62.34597656 -219.3515625 61.76757812 C-170.47087421 34.29516121 -117.31685359 16.05996893 -62.296875 5.65625 C-60.85803955 5.38216309 -60.85803955 5.38216309 -59.39013672 5.10253906 C-39.61895942 1.55075194 -20.07427139 -0.0075543 0 0 Z" transform="translate(482.359375,-0.46875)"/><path fill="#02213E" d="M0 0 C3.49589898 2.83564615 6.74244095 5.89051181 10 9 C10.33 2.07 10.66 -4.86 11 -12 C27.83 -12 44.66 -12 62 -12 C62.02254466 12.23411804 62.04097779 36.46822763 62.05181217 60.70235348 C62.05697573 71.95383516 62.06401956 83.20530989 62.07543945 94.45678711 C62.08538447 104.2597854 62.09185299 114.06277865 62.09408849 123.86578184 C62.09539591 129.05980367 62.09848371 134.25381107 62.10573006 139.44782829 C62.11248741 144.33063221 62.11461755 149.21341568 62.11310768 154.09622383 C62.11338414 155.89380631 62.11539095 157.69138944 62.11920547 159.4889679 C62.12413828 161.93215962 62.12299983 164.37527287 62.12025452 166.81846619 C62.12462378 167.8996715 62.12462378 167.8996715 62.12908131 169.00271934 C62.11412121 173.88587879 62.11412121 173.88587879 61 175 C59.4706537 175.09839214 57.93680434 175.12798539 56.40429688 175.12939453 C54.93772644 175.13412277 54.93772644 175.13412277 53.44152832 175.13894653 C52.37801147 175.1369223 51.31449463 175.13489807 50.21875 175.1328125 C48.59302063 175.13424759 48.59302063 175.13424759 46.93444824 175.13571167 C44.6377761 175.13639365 42.34110205 175.13453811 40.04443359 175.13037109 C36.51525572 175.12502312 32.98620513 175.1303155 29.45703125 175.13671875 C27.23177055 175.13605797 25.00650993 175.13477682 22.78125 175.1328125 C21.71773315 175.13483673 20.65421631 175.13686096 19.55847168 175.13894653 C18.58075806 175.13579437 17.60304443 175.13264221 16.59570312 175.12939453 C15.73046021 175.12859894 14.86521729 175.12780334 13.97375488 175.12698364 C12 175 12 175 11 174 C10.84313751 172.44051458 10.74923361 170.87457332 10.68359375 169.30859375 C10.62075195 167.89223633 10.62075195 167.89223633 10.55664062 166.44726562 C10.51732422 165.45404297 10.47800781 164.46082031 10.4375 163.4375 C10.39431641 162.44041016 10.35113281 161.44332031 10.30664062 160.41601562 C10.20019702 157.9441585 10.09818072 155.4721969 10 153 C9.52006592 153.52158691 9.04013184 154.04317383 8.5456543 154.58056641 C-5.33344354 169.45088872 -25.25340633 179.47102197 -45.65234375 180.27734375 C-72.36071699 180.89529147 -96.12293246 173.40013373 -116 155 C-135.58226068 135.92802624 -144.7929486 109.3836854 -145.29223633 82.5012207 C-145.47014029 56.15214336 -137.74181274 31.94681814 -120 12 C-119.33613281 11.24203125 -118.67226563 10.4840625 -117.98828125 9.703125 C-111.82657286 3.09722691 -104.72651761 -1.45289998 -97 -6 C-96.16726563 -6.495 -95.33453125 -6.99 -94.4765625 -7.5 C-64.89827585 -23.65196541 -26.60328053 -19.95840748 0 0 Z" transform="translate(390,486)"/><path fill="#F6B215" d="M0 0 C0.71154041 -0.00367669 1.42308082 -0.00735338 2.15618306 -0.01114148 C4.54661894 -0.0221772 6.93701134 -0.02602198 9.32746887 -0.02983093 C11.03904865 -0.03609572 12.75062706 -0.04274253 14.46220398 -0.04974365 C20.0889135 -0.07078623 25.71562329 -0.08114681 31.34236145 -0.09111023 C33.27969693 -0.09515783 35.21703226 -0.09927476 37.15436745 -0.10346031 C46.25691153 -0.12251309 55.35944751 -0.13674346 64.4620077 -0.14507228 C74.9666969 -0.15484284 85.47117528 -0.18115729 95.9757902 -0.22157317 C104.09650481 -0.25174399 112.21715903 -0.26654211 120.33792859 -0.26985329 C125.18736803 -0.27220286 130.03658226 -0.28115098 134.88596153 -0.30631447 C139.45047029 -0.3296168 144.01460593 -0.33381974 148.57915878 -0.32355309 C150.25126068 -0.32305812 151.92338107 -0.32936685 153.59542656 -0.34310913 C170.69221376 -0.47572277 170.69221376 -0.47572277 178.0728302 5.89326477 C178.74185364 6.73051086 178.74185364 6.73051086 179.4243927 7.58467102 C180.11661926 8.41804993 180.11661926 8.41804993 180.8228302 9.26826477 C183.34484196 13.13160126 184.29899408 16.62531606 184.31681824 21.21231079 C184.32961319 22.70720535 184.32961319 22.70720535 184.34266663 24.2322998 C184.34130707 25.85558952 184.34130707 25.85558952 184.33992004 27.51167297 C184.34663727 28.66022766 184.35335449 29.80878235 184.36027527 30.99214172 C184.37927661 34.78995589 184.38318064 38.58759352 184.3853302 42.38545227 C184.3917568 45.02715121 184.39848506 47.66884944 184.40550232 50.31054688 C184.41828331 55.84944304 184.42126827 61.3882914 184.41999817 66.92720032 C184.41879757 73.31600149 184.43988609 79.70446439 184.4714855 86.09318 C184.50086083 92.25321398 184.50797232 98.41308652 184.50677872 104.57318687 C184.5091368 107.18741931 184.51797192 109.80165433 184.53344345 112.41584206 C184.5530745 116.07567394 184.54727551 119.73463915 184.53523254 123.39448547 C184.54647156 124.47060593 184.55771057 125.54672638 184.56929016 126.65545654 C184.5077106 134.03310252 183.42344068 139.67250531 178.08454895 145.17060852 C177.10808411 145.83963196 177.10808411 145.83963196 176.1118927 146.52217102 C175.46349426 146.9836554 174.81509583 147.44513977 174.14704895 147.92060852 C169.69456205 150.5241111 166.12884543 151.39466036 160.96836853 151.35835266 C159.74629196 151.35506454 158.52421539 151.35177643 157.2651062 151.34838867 C155.91862382 151.33480625 154.57214252 151.32111548 153.22566223 151.30732727 C151.80100966 151.30025053 150.37635168 151.29419878 148.95169067 151.28909302 C145.88622008 151.27688277 142.82084232 151.25931778 139.75542068 151.23817444 C134.89496896 151.20661143 130.03466142 151.19883232 125.17411804 151.19648743 C124.35212138 151.19597382 123.53012472 151.19546021 122.68321908 151.19493103 C121.00228248 151.19388954 119.32134587 151.19288527 117.64040923 151.19191742 C106.33051195 151.18403913 95.021112 151.15907794 83.71150208 151.07539368 C76.07586981 151.01907885 68.44103823 150.99876084 60.80521286 151.01859379 C56.77152238 151.02762442 52.73970827 151.01888723 48.7063179 150.96580505 C24.92279631 150.37964023 24.92279631 150.37964023 5.0493927 162.14717102 C3.35533897 163.32290067 1.64105393 164.471081 -0.1068573 165.56513977 C-0.8390448 166.03371399 -1.5712323 166.50228821 -2.3256073 166.98506165 C-3.0268573 167.43043274 -3.7281073 167.87580383 -4.4506073 168.33467102 C-5.54888855 169.06653625 -5.54888855 169.06653625 -6.6693573 169.81318665 C-10.35529914 172.1333554 -12.34381834 173.1391545 -16.7943573 173.19795227 C-20.38812604 172.00151193 -21.10931463 171.36712738 -22.9506073 168.14717102 C-23.33371735 165.30627918 -23.33371735 165.30627918 -23.34501648 161.95620728 C-23.35636627 160.68476364 -23.36771606 159.41332001 -23.37940979 158.10334778 C-23.37676646 156.6964868 -23.37379523 155.2896264 -23.37052917 153.88276672 C-23.37786977 152.39925497 -23.38645597 150.91574893 -23.39619446 149.43225098 C-23.41842759 145.40303592 -23.42134002 141.37402529 -23.41944695 137.34475732 C-23.41932726 133.97776671 -23.42789135 130.61081943 -23.43622446 127.24384087 C-23.45546737 119.29532846 -23.45834014 111.34692105 -23.45158386 103.39839172 C-23.44495178 95.21061767 -23.46777155 87.02329511 -23.50489759 78.8356126 C-23.5356437 71.79848049 -23.54694903 64.7614932 -23.54306078 57.72429532 C-23.54099724 53.52481224 -23.54640997 49.32568 -23.57095337 45.12626076 C-23.59329766 41.17226052 -23.59127975 37.2189903 -23.57102585 33.26498604 C-23.56762857 31.81906817 -23.57264944 30.37310046 -23.58700943 28.92724991 C-23.66504591 20.48277034 -23.24013225 13.98459315 -17.9506073 7.14717102 C-15.8177948 4.99092102 -15.8177948 4.99092102 -13.8256073 3.64717102 C-13.16302917 3.18310852 -12.50045105 2.71904602 -11.8177948 2.24092102 C-7.873788 -0.06937585 -4.47953702 0.01498662 0 0 Z" transform="translate(272.9506072998047,276.8528289794922)"/><path fill="#02213E" d="M0 0 C1.60920067 1.34818072 3.21367743 2.70202786 4.8125 4.0625 C5.82763672 4.85914063 5.82763672 4.85914063 6.86328125 5.671875 C22.13279997 18.03437112 31.00437767 36.41399317 35.8125 55.0625 C36.05871094 56.00867188 36.30492187 56.95484375 36.55859375 57.9296875 C41.85792625 83.14720078 36.80643255 110.99096986 23.8125 133.0625 C20.98859318 137.21704354 17.96877111 141.1566877 14.8125 145.0625 C14.09513672 146.02736328 14.09513672 146.02736328 13.36328125 147.01171875 C-0.26835516 164.57319629 -24.20152436 174.53271241 -45.66796875 177.59375 C-73.38585044 180.84093028 -100.18841134 174.38829662 -122.34130859 157.15063477 C-140.56292279 142.40561988 -153.52926359 120.22659885 -156.89013672 96.91308594 C-159.77604769 69.24814632 -156.34263181 41.72462938 -139.1875 19.0625 C-105.32408261 -21.23393741 -43.54189114 -34.291717 0 0 Z" transform="translate(801.1875,487.9375)"/><path fill="#03223F" d="M0 0 C1.35568336 0.00333092 1.35568336 0.00333092 2.73875427 0.00672913 C3.75973709 0.00680466 4.78071991 0.00688019 5.8326416 0.00695801 C6.94304306 0.01211929 8.05344452 0.01728058 9.19749451 0.02259827 C10.89336952 0.02472069 10.89336952 0.02472069 12.62350464 0.02688599 C16.25105891 0.03250433 19.8785525 0.04505994 23.50608826 0.05775452 C25.95856133 0.06276715 28.41103536 0.06733047 30.86351013 0.07142639 C36.89022371 0.08247971 42.91690165 0.09923568 48.94358826 0.12025452 C48.96645364 33.99005934 48.98408598 67.85986226 48.99465359 101.72967308 C48.99590436 105.72404334 48.99719868 109.71841358 48.9985199 113.71278381 C48.99878221 114.50802503 48.99904452 115.30326625 48.99931478 116.12260569 C49.00367167 129.01618623 49.01155932 141.90976234 49.02074105 154.80334025 C49.03007706 168.02335987 49.03564375 181.24337716 49.03767675 194.46339995 C49.03905209 202.62751387 49.04340326 210.79161525 49.05150472 218.95572532 C49.05739218 225.20527359 49.05804735 231.45481221 49.05669594 237.70436287 C49.05697248 240.27597252 49.05898034 242.84758262 49.06279373 245.41918945 C49.06772373 248.91334802 49.06658912 252.40745166 49.06384277 255.90161133 C49.06675561 256.93369073 49.06966846 257.96577014 49.07266957 259.02912468 C49.07067852 259.95769895 49.06868747 260.88627322 49.06663609 261.84298611 C49.06720567 263.05448382 49.06720567 263.05448382 49.06778675 264.29045624 C48.94358826 266.12025452 48.94358826 266.12025452 47.94358826 267.12025452 C46.38359778 267.21872418 44.81918281 267.24824069 43.25608826 267.24964905 C42.25835388 267.25280121 41.26061951 267.25595337 40.23265076 267.25920105 C39.14726013 267.25717682 38.06186951 267.25515259 36.94358826 267.25306702 C35.83757263 267.25402374 34.73155701 267.25498047 33.59202576 267.25596619 C31.24827518 267.25664818 28.90452273 267.25479256 26.56077576 267.25062561 C22.95917038 267.24527765 19.35768972 267.25056998 15.75608826 267.25697327 C13.48525465 267.25631249 11.21442111 267.25503133 8.94358826 267.25306702 C7.85819763 267.25509125 6.77280701 267.25711548 5.65452576 267.25920105 C4.65679138 267.25604889 3.65905701 267.25289673 2.63108826 267.24964905 C1.74808044 267.24885345 0.86507263 267.24805786 -0.04469299 267.24723816 C-2.05641174 267.12025452 -2.05641174 267.12025452 -3.05641174 266.12025452 C-3.15387776 264.703364 -3.18196612 263.2816356 -3.18225288 261.86139679 C-3.18486063 260.93692261 -3.18746838 260.01244843 -3.19015515 259.05995989 C-3.18792443 258.03245355 -3.18569371 257.00494721 -3.18339539 255.94630432 C-3.18495538 254.86401409 -3.18651537 253.78172385 -3.18812263 252.66663694 C-3.19213774 249.00988658 -3.18894101 245.35317713 -3.18580627 241.69642639 C-3.18716009 239.08709692 -3.18893991 236.47776764 -3.19111633 233.86843872 C-3.19557469 227.49877017 -3.19459728 221.12911337 -3.19170369 214.75944436 C-3.18944991 209.58498991 -3.18913703 204.41053878 -3.19022751 199.23608398 C-3.19038074 198.50103747 -3.19053397 197.76599095 -3.19069185 197.0086703 C-3.19101156 195.51567256 -3.19133577 194.02267483 -3.19166444 192.52967709 C-3.19451942 178.51327756 -3.19123193 164.49688456 -3.18586408 150.48048609 C-3.18139602 138.44064652 -3.18217195 126.40081658 -3.18678284 114.36097717 C-3.19212828 100.39645176 -3.19424473 86.43193208 -3.19117057 72.4674058 C-3.19085201 70.97974555 -3.19053764 69.4920853 -3.19022751 68.00442505 C-3.19007323 67.27237153 -3.18991896 66.54031801 -3.18976001 65.78608105 C-3.18889476 60.61483226 -3.19035789 55.44358709 -3.19270706 50.27233887 C-3.19579634 43.31870289 -3.19361279 36.3650855 -3.18781281 29.41145134 C-3.18648442 26.85112984 -3.18688064 24.29080682 -3.18907547 21.73048592 C-3.1917839 18.25170433 -3.18840962 14.77298243 -3.18339539 11.29420471 C-3.18562611 10.26669837 -3.18785683 9.23919204 -3.19015515 8.18054914 C-3.1875474 7.25607497 -3.18493965 6.33160079 -3.18225288 5.37911224 C-3.18209053 4.57502694 -3.18192818 3.77094163 -3.18176091 2.9424901 C-3.00072203 0.31067765 -2.62774228 0.15366469 0 0 Z" transform="translate(573.0564117431641,393.87974548339844)"/><path fill="#012240" d="M0 0 C7.24486551 -0.02526739 14.48971974 -0.0428318 21.73461914 -0.05493164 C24.20142033 -0.05997356 26.66821852 -0.06680691 29.13500977 -0.07543945 C32.67204529 -0.08751125 36.20904145 -0.09322956 39.74609375 -0.09765625 C40.85649521 -0.10281754 41.96689667 -0.10797882 43.11094666 -0.11329651 C44.64242088 -0.11340981 44.64242088 -0.11340981 46.20483398 -0.11352539 C47.10862289 -0.115746 48.0124118 -0.11796661 48.94358826 -0.12025452 C51 0 51 0 52 1 C52.09746602 2.41689051 52.12555438 3.83861892 52.12584114 5.25885773 C52.12844889 6.1833319 52.13105664 7.10780608 52.13374341 8.06029463 C52.13151268 9.08780097 52.12928196 10.1153073 52.12698364 11.1739502 C52.12854363 12.25624043 52.13010362 13.33853066 52.13171089 14.45361757 C52.135726 18.11036794 52.13252927 21.76707739 52.12939453 25.42382812 C52.13074835 28.0331576 52.13252816 30.64248688 52.13470459 33.2518158 C52.13916294 39.62148434 52.13818553 45.99114114 52.13529195 52.36081016 C52.13303817 57.5352646 52.13272528 62.70971574 52.13381577 67.88417053 C52.133969 68.61921705 52.13412223 69.35426356 52.13428011 70.11158422 C52.13459982 71.60458195 52.13492403 73.09757969 52.1352527 74.59057742 C52.13810768 88.60697696 52.13482018 102.62336996 52.12945233 116.63976842 C52.12498428 128.679608 52.1257602 140.71943794 52.13037109 152.75927734 C52.13571654 166.72380275 52.13783299 180.68832243 52.13475883 194.65284872 C52.13444026 196.14050897 52.13412589 197.62816922 52.13381577 199.11582947 C52.13358435 200.21390975 52.13358435 200.21390975 52.13334826 201.33417347 C52.13248302 206.50542226 52.13394615 211.67666742 52.13629532 216.84791565 C52.13938459 223.80155163 52.13720105 230.75516901 52.13140106 237.70880318 C52.13007267 240.26912467 52.1304689 242.8294477 52.13266373 245.3897686 C52.13537216 248.86855018 52.13199788 252.34727209 52.12698364 255.8260498 C52.12921436 256.85355614 52.13144509 257.88106248 52.13374341 258.93970537 C52.12983178 260.32641664 52.12983178 260.32641664 52.12584114 261.74114227 C52.12567879 262.54522758 52.12551644 263.34931289 52.12534916 264.17776442 C52 266 52 266 51 267 C49.44000952 267.09846967 47.87559456 267.12798618 46.3125 267.12939453 C45.31476562 267.13254669 44.31703125 267.13569885 43.2890625 267.13894653 C42.20367188 267.1369223 41.11828125 267.13489807 40 267.1328125 C38.89398437 267.13376923 37.78796875 267.13472595 36.6484375 267.13571167 C34.30468692 267.13639367 31.96093447 267.13453804 29.6171875 267.13037109 C26.01558212 267.12502314 22.41410147 267.13031547 18.8125 267.13671875 C16.54166639 267.13605797 14.27083286 267.13477682 12 267.1328125 C10.91460937 267.13483673 9.82921875 267.13686096 8.7109375 267.13894653 C7.71320313 267.13579437 6.71546875 267.13264221 5.6875 267.12939453 C4.80449219 267.12859894 3.92148437 267.12780334 3.01171875 267.12698364 C1 267 1 267 0 266 C-0.09659172 264.57692835 -0.12371842 263.14907742 -0.12304783 261.72273159 C-0.12503888 260.79415732 -0.12702993 259.86558305 -0.12908131 258.90887016 C-0.12616847 257.87679076 -0.12325563 256.84471135 -0.12025452 255.78135681 C-0.12110894 254.69427746 -0.12196337 253.60719811 -0.12284368 252.48717695 C-0.12450169 248.81427026 -0.11897188 245.1414084 -0.11352539 241.46850586 C-0.11324356 238.84770204 -0.11340117 236.22689814 -0.1139679 233.60609436 C-0.11449332 227.9481096 -0.11134462 222.29013633 -0.10573006 216.63215446 C-0.09761751 208.45157189 -0.09500009 200.27099491 -0.09374207 192.09040875 C-0.09155116 178.81930255 -0.08489003 165.54820248 -0.07543945 152.27709961 C-0.06626633 139.38224315 -0.05918501 126.48738836 -0.05493164 113.5925293 C-0.05466892 112.7982512 -0.05440619 112.0039731 -0.05413551 111.18562596 C-0.05283051 107.20113365 -0.05156679 103.21664133 -0.05032361 99.232149 C-0.03994979 66.15476154 -0.02233043 33.07738159 0 0 Z" transform="translate(486,394)"/><path fill="#FBF3E3" d="M0 0 C12.18226167 9.2510638 20.13713639 21.86705691 22.24609375 37.1328125 C23.34609586 51.37874149 20.94072896 65.50504734 12.24609375 77.1328125 C11.72144531 77.83792969 11.19679688 78.54304687 10.65625 79.26953125 C1.47071028 90.61637443 -12.34398191 97.44173047 -26.75390625 99.1328125 C-40.11580606 100.2137235 -53.17261578 96.08595702 -63.62890625 87.7578125 C-65.36036582 86.24216523 -67.07157152 84.70280892 -68.75390625 83.1328125 C-69.63175781 82.31876953 -69.63175781 82.31876953 -70.52734375 81.48828125 C-82.16516531 69.3270656 -84.36297919 53.51210178 -84.0625 37.50390625 C-83.47764173 23.48429535 -76.310967 11.7322426 -66.26953125 2.203125 C-46.65041513 -13.94304199 -20.82313808 -14.11838298 0 0 Z" transform="translate(379.75390625,522.8671875)"/><path fill="#FBF3E3" d="M0 0 C11.8696395 8.81687266 19.25081268 20.26875788 22.14453125 34.859375 C24.46935833 52.44802576 21.84400103 69.38384871 10.84375 83.79296875 C2.79752934 93.41656733 -6.8652802 99.25490385 -19.49609375 100.70849609 C-32.55547304 101.73090803 -45.23819852 99.84257885 -55.5859375 91.10546875 C-56.17761719 90.5640625 -56.76929688 90.02265625 -57.37890625 89.46484375 C-58.04277344 88.9028125 -58.70664062 88.34078125 -59.390625 87.76171875 C-70.02186908 78.12272412 -74.87998772 64.95701777 -75.69140625 50.87890625 C-76.04227978 41.09463114 -75.17221016 32.60896709 -71.37890625 23.46484375 C-71.05148437 22.60890625 -70.7240625 21.75296875 -70.38671875 20.87109375 C-65.69831826 10.05697291 -56.23267057 0.11645703 -45.37890625 -4.53515625 C-30.50265927 -9.69146497 -13.4480995 -8.67833022 0 0 Z" transform="translate(768.37890625,520.53515625)"/><path fill="#FCF4E3" d="M0 0 C3.9375 0.6875 3.9375 0.6875 5.98046875 2.89453125 C7.84751962 5.55908489 9.53415392 8.26144281 11.1875 11.0625 C17.99009012 21.80799267 27.62868803 27.7401368 39.9375 30.6875 C54.151561 31.88711653 65.82382524 29.96780808 77.39453125 21.03515625 C81.65724627 17.09983869 84.80639319 12.54330631 87.9375 7.6875 C91.82719521 1.74265239 91.82719521 1.74265239 93.9375 0.6875 C98.21265323 0.20352039 100.28252391 0.26449461 103.9375 2.625 C106.30895366 6.25628842 106.57794191 7.90800855 105.83203125 12.09765625 C100.84194745 26.54492944 87.96853765 36.82168446 74.9375 43.6875 C59.8387399 50.48093412 43.77272726 51.91015124 27.9375 46.6875 C18.46892649 42.87319473 11.02426944 38.00844095 3.9375 30.6875 C3.20660156 29.94242187 2.47570312 29.19734375 1.72265625 28.4296875 C-3.45179027 22.89871486 -8.20177672 17.07718875 -9.6875 9.5 C-8.48785082 4.10157871 -5.68323077 0.37180014 0 0 Z" transform="translate(306.0625,335.3125)"/><path fill="#FEFDFC" d="M0 0 C0 0.33 0 0.66 0 1 C-1.04115967 1.10546143 -2.08231934 1.21092285 -3.1550293 1.31958008 C-7.13106145 1.72348996 -11.10649075 2.1331064 -15.08178711 2.54418945 C-16.78117923 2.71917605 -18.48071797 2.89274622 -20.18041992 3.06469727 C-40.11023583 5.08313125 -59.64388513 7.76690577 -79.125 12.5 C-80.01920654 12.71487061 -80.91341309 12.92974121 -81.8347168 13.15112305 C-115.50323134 21.2761606 -148.25763173 32.21886034 -179.65722656 46.90869141 C-181.98041204 47.99087555 -184.31310144 49.04980253 -186.6484375 50.10546875 C-199.52880661 55.98916085 -211.77152993 62.87451553 -224 70 C-224.87333984 70.5043457 -225.74667969 71.00869141 -226.64648438 71.52832031 C-243.90480166 81.51546725 -260.21967882 92.81793887 -276 105 C-276.53753906 105.41282227 -277.07507813 105.82564453 -277.62890625 106.25097656 C-290.4084435 116.08306929 -302.59821248 126.53090701 -314.39892578 137.51660156 C-316.12065012 139.11178257 -317.85471127 140.69285683 -319.58984375 142.2734375 C-331.12221259 152.83341354 -341.86725235 164.0883922 -352 176 C-353.24136719 177.44052734 -353.24136719 177.44052734 -354.5078125 178.91015625 C-388.09600658 218.04982322 -415.3853324 262.79258754 -436 310 C-436.32516602 310.73379883 -436.65033203 311.46759766 -436.98535156 312.22363281 C-447.28806302 335.57569807 -455.04118692 360.38601565 -461.26855469 385.10839844 C-461.77508963 387.11086835 -462.28928098 389.11141124 -462.80957031 391.11035156 C-466.98045583 407.23618665 -470.02113567 423.32961198 -472.375 439.8125 C-472.50228485 440.69302032 -472.6295697 441.57354065 -472.76071167 442.48074341 C-474.40518985 453.9770542 -475.51232137 465.39644956 -476 477 C-476.33 477 -476.66 477 -477 477 C-480.44200305 416.11479042 -456.98238901 349.47272898 -432 295 C-431.31713263 293.48202969 -430.63479388 291.9638214 -429.953125 290.4453125 C-418.25414115 264.67637472 -403.5180113 239.95948326 -387 217 C-386.46407227 216.25298828 -385.92814453 215.50597656 -385.37597656 214.73632812 C-377.29086181 203.51033308 -368.87648844 192.61059076 -360 182 C-359.50290527 181.40380859 -359.00581055 180.80761719 -358.49365234 180.19335938 C-347.79199548 167.40073628 -336.39048935 155.31640122 -324.625 143.5 C-323.88813965 142.7584668 -323.1512793 142.01693359 -322.39208984 141.25292969 C-318.30960451 137.18241106 -314.1317235 133.28639347 -309.76416016 129.5234375 C-307.59011239 127.64604225 -305.48499058 125.69886403 -303.375 123.75 C-297.78460325 118.71184609 -291.89967328 114.11457411 -285.94677734 109.51855469 C-283.96466147 107.9724347 -282.00633775 106.39985557 -280.05078125 104.8203125 C-260.36350171 89.03072593 -238.97536629 75.36873172 -217 63 C-216.00742187 62.43861328 -215.01484375 61.87722656 -213.9921875 61.29882812 C-151.47245749 26.16085956 -72.7620506 -2.17320284 0 0 Z" transform="translate(477,0)"/><path fill="#FEFDFC" d="M0 0 C0.33 0 0.66 0 1 0 C1.03440186 0.58450928 1.06880371 1.16901855 1.10424805 1.77124023 C4.93610113 63.51457212 21.55110863 123.76991563 47 180 C47.4448877 180.9890332 47.88977539 181.97806641 48.34814453 182.99707031 C54.7467986 197.13462018 62.1366351 210.62805085 70 224 C70.8674585 225.47533203 70.8674585 225.47533203 71.75244141 226.98046875 C79.29198091 239.73039463 87.21156165 252.07559907 96 264 C96.77859375 265.0621875 97.5571875 266.124375 98.359375 267.21875 C100.54704154 270.16666946 102.76363564 273.08887054 105 276 C105.41572266 276.54188965 105.83144531 277.0837793 106.25976562 277.64208984 C118.38862758 293.40511821 131.33634595 308.60896708 145.5625 322.52734375 C146.94038636 323.93892842 148.19359437 325.46903923 149.4375 327 C152.04076726 330.04772752 154.79624758 332.50136477 157.83984375 335.08984375 C160.10651996 337.09419215 162.20363264 339.2057715 164.3125 341.375 C168.31491048 345.42522084 172.5564535 349.0076628 177 352.5625 C179.69979437 354.75608292 182.32755521 357.0064893 184.94628906 359.29467773 C205.80732686 377.47934851 228.99881519 393.28220124 253 407 C253.76119141 407.43505859 254.52238281 407.87011719 255.30664062 408.31835938 C259.77787526 410.85961999 264.27573229 413.34762339 268.79638672 415.79980469 C270.94601554 416.97059743 273.08429931 418.16034074 275.22265625 419.3515625 C298.08055459 431.91079072 322.39891733 441.59848915 347.05517578 449.97753906 C349.77186231 450.9207892 352.45107758 451.93348601 355.13671875 452.9609375 C362.29184845 455.57629191 369.65526229 457.43880933 377.02148438 459.35449219 C379.46943592 459.99203985 381.9144777 460.6399137 384.359375 461.2890625 C401.79478704 465.88307516 419.17958622 469.39066269 437.0625 471.6875 C438.67391151 471.90106448 440.28523999 472.1152564 441.89648438 472.33007812 C449.58746693 473.34770168 457.27322304 474.29190664 465 475 C465 475.33 465 475.66 465 476 C394.66172464 480.76690119 311.62165078 444.27615907 253 410 C251.66243652 409.22172852 251.66243652 409.22172852 250.29785156 408.42773438 C238.85753992 401.75103785 227.75929602 394.72747559 217 387 C216.2486377 386.46117187 215.49727539 385.92234375 214.72314453 385.3671875 C203.50142461 377.28478121 192.60863141 368.87074622 182 360 C181.40912598 359.50822266 180.81825195 359.01644531 180.20947266 358.50976562 C167.01898143 347.49870078 154.60971483 335.68209718 142.4375 323.5625 C141.69983398 322.82950684 140.96216797 322.09651367 140.20214844 321.34130859 C135.59741077 316.72293503 131.2398723 311.95388859 127 307 C126.03822563 305.89412648 125.07600809 304.78863818 124.11328125 303.68359375 C98.64817851 274.24448009 76.83597079 242.34840589 58.20117188 208.18945312 C57.10172877 206.18542756 55.98327517 204.19349568 54.859375 202.203125 C23.01965172 144.98788272 -3.74680029 66.27673405 0 0 Z" transform="translate(0,548)"/><path fill="#FEFDFC" d="M0 0 C28.07870082 -1.58736374 56.840584 4.4994835 84 11 C85.06847168 11.24943359 86.13694336 11.49886719 87.23779297 11.75585938 C135.3644921 23.08664222 181.3800084 42.03793778 224 67 C224.88880859 67.51739746 225.77761719 68.03479492 226.69335938 68.56787109 C238.13675496 75.24601281 249.23793766 82.2705376 260 90 C260.7513623 90.53882812 261.50272461 91.07765625 262.27685547 91.6328125 C273.49857539 99.71521879 284.39136859 108.12925378 295 117 C295.88631104 117.73766602 295.88631104 117.73766602 296.79052734 118.49023438 C309.98101857 129.50129922 322.39028517 141.31790282 334.5625 153.4375 C335.30016602 154.17049316 336.03783203 154.90348633 336.79785156 155.65869141 C341.40258923 160.27706497 345.7601277 165.04611141 350 170 C350.96177437 171.10587352 351.92399191 172.21136182 352.88671875 173.31640625 C378.37877844 202.78668368 400.16495006 234.71286819 418.84179688 268.89208984 C419.86520039 270.75466699 420.90774091 272.60670141 421.953125 274.45703125 C451.07229452 327.00612079 479.6735318 402.08059761 476 463 C475.67 463 475.34 463 475 463 C474.89977539 462.14583496 474.79955078 461.29166992 474.69628906 460.41162109 C468.06169556 404.36359821 454.46158835 350.45484009 431 299 C430.50886719 297.92137695 430.01773437 296.84275391 429.51171875 295.73144531 C415.82435775 265.92802932 399.20192318 237.3524624 379.54980469 211.07617188 C378.0020276 209.00271625 376.4722315 206.91697373 374.9453125 204.828125 C368.35347317 195.85998406 361.34874566 187.35519208 354 179 C353.34257813 178.24203125 352.68515625 177.4840625 352.0078125 176.703125 C347.40941149 171.40542798 342.71360014 166.19517539 338 161 C337.52336914 160.47148437 337.04673828 159.94296875 336.55566406 159.3984375 C331.24908123 153.52121762 326.01079974 147.76162131 319.92578125 142.671875 C317.67151147 140.71482132 315.59463453 138.62674988 313.5 136.5 C309.49284088 132.4519515 305.34026649 128.68513192 301 125 C300.03191406 124.16597656 299.06382812 123.33195312 298.06640625 122.47265625 C270.50706288 98.81786909 240.14706065 78.50355007 208.23583984 61.21630859 C206.07250098 60.03944092 203.92091856 58.84306877 201.76953125 57.64453125 C140.12796718 23.77087843 69.75177445 6.52563434 0 1 C0 0.67 0 0.34 0 0 Z" transform="translate(548,0)"/><path fill="#FEFDFC" d="M0 0 C0.33 0 0.66 0 1 0 C1.25741439 10.55312329 0.68156858 20.55416362 -1.0625 31 C-1.17292633 31.67742249 -1.28335266 32.35484497 -1.39712524 33.05279541 C-9.11670931 80.3089925 -23.03375522 125.46469839 -43 169 C-43.68286737 170.51797031 -44.36520612 172.0361786 -45.046875 173.5546875 C-56.74585885 199.32362528 -71.4819887 224.04051674 -88 247 C-88.53592773 247.74701172 -89.07185547 248.49402344 -89.62402344 249.26367188 C-97.70913819 260.48966692 -106.12351156 271.38940924 -115 282 C-115.49709473 282.59619141 -115.99418945 283.19238281 -116.50634766 283.80664062 C-127.20800452 296.59926372 -138.60951065 308.68359878 -150.375 320.5 C-151.11186035 321.2415332 -151.8487207 321.98306641 -152.60791016 322.74707031 C-156.69039549 326.81758894 -160.8682765 330.71360653 -165.23583984 334.4765625 C-167.40988761 336.35395775 -169.51500942 338.30113597 -171.625 340.25 C-177.21539675 345.28815391 -183.10032672 349.88542589 -189.05322266 354.48144531 C-191.03533853 356.0275653 -192.99366225 357.60014443 -194.94921875 359.1796875 C-214.63649829 374.96927407 -236.02463371 388.63126828 -258 401 C-259.48886719 401.84208008 -259.48886719 401.84208008 -261.0078125 402.70117188 C-317.48053368 434.44053961 -391.87929701 465.21633641 -458 463 C-458 462.67 -458 462.34 -458 462 C-456.4214624 461.80591553 -456.4214624 461.80591553 -454.81103516 461.60791016 C-434.11506413 459.02424932 -413.71798858 455.85945535 -393.4375 450.9375 C-392.15120697 450.62670502 -392.15120697 450.62670502 -390.83892822 450.30963135 C-379.45729462 447.53902467 -368.2067243 444.40631009 -357 441 C-355.41795776 440.5203479 -355.41795776 440.5203479 -353.80395508 440.03100586 C-351.09408485 439.20064025 -348.39004482 438.35386526 -345.6875 437.5 C-344.81544922 437.23058594 -343.94339844 436.96117187 -343.04492188 436.68359375 C-336.18295668 434.51559593 -329.61448476 431.82487556 -323 429 C-321.00731697 428.17383319 -319.01382233 427.3496213 -317.01953125 426.52734375 C-278.79231998 410.6337904 -242.29991362 391.39794332 -209.07617188 366.54980469 C-207.00271625 365.0020276 -204.91697373 363.4722315 -202.828125 361.9453125 C-193.85998406 355.35347317 -185.35519208 348.34874566 -177 341 C-176.24203125 340.34257813 -175.4840625 339.68515625 -174.703125 339.0078125 C-172.79231144 337.34922633 -170.89345009 335.67837259 -169 334 C-168.18917969 333.28199219 -167.37835937 332.56398438 -166.54296875 331.82421875 C-162.08605773 327.84841357 -157.75678647 323.80949926 -153.578125 319.54296875 C-152 318 -152 318 -149 315.5625 C-145.95607276 312.96247881 -143.50496308 310.21002286 -140.91796875 307.171875 C-138.86532473 304.84749602 -136.70935328 302.67559406 -134.5 300.5 C-130.4519515 296.49284088 -126.68513192 292.34026649 -123 288 C-122.16597656 287.03191406 -121.33195312 286.06382812 -120.47265625 285.06640625 C-87.48798378 246.63714842 -59.92065121 202.5316642 -40 156 C-39.56623047 155.0001709 -39.13246094 154.0003418 -38.68554688 152.97021484 C-21.9824487 114.25868193 -10.89637543 73.5524035 -4 32 C-3.69013621 30.19140076 -3.3802419 28.38280675 -3.0703125 26.57421875 C-1.58604866 17.72660812 -0.46688203 8.96735492 0 0 Z" transform="translate(1023,561)"/><path fill="#09132A" d="M0 0 C7.24486551 -0.02526739 14.48971974 -0.0428318 21.73461914 -0.05493164 C24.20142033 -0.05997356 26.66821852 -0.06680691 29.13500977 -0.07543945 C32.67204529 -0.08751125 36.20904145 -0.09322956 39.74609375 -0.09765625 C40.85649521 -0.10281754 41.96689667 -0.10797882 43.11094666 -0.11329651 C44.64242088 -0.11340981 44.64242088 -0.11340981 46.20483398 -0.11352539 C47.10862289 -0.115746 48.0124118 -0.11796661 48.94358826 -0.12025452 C51 0 51 0 52 1 C52.09746602 2.41689051 52.12555438 3.83861892 52.12584114 5.25885773 C52.12844889 6.1833319 52.13105664 7.10780608 52.13374341 8.06029463 C52.13151268 9.08780097 52.12928196 10.1153073 52.12698364 11.1739502 C52.12854363 12.25624043 52.13010362 13.33853066 52.13171089 14.45361757 C52.135726 18.11036794 52.13252927 21.76707739 52.12939453 25.42382812 C52.13074835 28.0331576 52.13252816 30.64248688 52.13470459 33.2518158 C52.13916294 39.62148434 52.13818553 45.99114114 52.13529195 52.36081016 C52.13303817 57.5352646 52.13272528 62.70971574 52.13381577 67.88417053 C52.133969 68.61921705 52.13412223 69.35426356 52.13428011 70.11158422 C52.13459982 71.60458195 52.13492403 73.09757969 52.1352527 74.59057742 C52.13810768 88.60697696 52.13482018 102.62336996 52.12945233 116.63976842 C52.12498428 128.679608 52.1257602 140.71943794 52.13037109 152.75927734 C52.13571654 166.72380275 52.13783299 180.68832243 52.13475883 194.65284872 C52.13444026 196.14050897 52.13412589 197.62816922 52.13381577 199.11582947 C52.13358435 200.21390975 52.13358435 200.21390975 52.13334826 201.33417347 C52.13248302 206.50542226 52.13394615 211.67666742 52.13629532 216.84791565 C52.13938459 223.80155163 52.13720105 230.75516901 52.13140106 237.70880318 C52.13007267 240.26912467 52.1304689 242.8294477 52.13266373 245.3897686 C52.13537216 248.86855018 52.13199788 252.34727209 52.12698364 255.8260498 C52.12921436 256.85355614 52.13144509 257.88106248 52.13374341 258.93970537 C52.12983178 260.32641664 52.12983178 260.32641664 52.12584114 261.74114227 C52.12567879 262.54522758 52.12551644 263.34931289 52.12534916 264.17776442 C52 266 52 266 51 267 C49.44000952 267.09846967 47.87559456 267.12798618 46.3125 267.12939453 C45.31476562 267.13254669 44.31703125 267.13569885 43.2890625 267.13894653 C42.20367188 267.1369223 41.11828125 267.13489807 40 267.1328125 C38.89398437 267.13376923 37.78796875 267.13472595 36.6484375 267.13571167 C34.30468692 267.13639367 31.96093447 267.13453804 29.6171875 267.13037109 C26.01558212 267.12502314 22.41410147 267.13031547 18.8125 267.13671875 C16.54166639 267.13605797 14.27083286 267.13477682 12 267.1328125 C10.91460937 267.13483673 9.82921875 267.13686096 8.7109375 267.13894653 C7.71320313 267.13579437 6.71546875 267.13264221 5.6875 267.12939453 C4.80449219 267.12859894 3.92148437 267.12780334 3.01171875 267.12698364 C1 267 1 267 0 266 C-0.09659172 264.57692835 -0.12371842 263.14907742 -0.12304783 261.72273159 C-0.12503888 260.79415732 -0.12702993 259.86558305 -0.12908131 258.90887016 C-0.12616847 257.87679076 -0.12325563 256.84471135 -0.12025452 255.78135681 C-0.12110894 254.69427746 -0.12196337 253.60719811 -0.12284368 252.48717695 C-0.12450169 248.81427026 -0.11897188 245.1414084 -0.11352539 241.46850586 C-0.11324356 238.84770204 -0.11340117 236.22689814 -0.1139679 233.60609436 C-0.11449332 227.9481096 -0.11134462 222.29013633 -0.10573006 216.63215446 C-0.09761751 208.45157189 -0.09500009 200.27099491 -0.09374207 192.09040875 C-0.09155116 178.81930255 -0.08489003 165.54820248 -0.07543945 152.27709961 C-0.06626633 139.38224315 -0.05918501 126.48738836 -0.05493164 113.5925293 C-0.05466892 112.7982512 -0.05440619 112.0039731 -0.05413551 111.18562596 C-0.05283051 107.20113365 -0.05156679 103.21664133 -0.05032361 99.232149 C-0.03994979 66.15476154 -0.02233043 33.07738159 0 0 Z M1 2 C1 88.79 1 175.58 1 265 C17.17 265 33.34 265 50 265 C50 178.21 50 91.42 50 2 C33.83 2 17.66 2 1 2 Z" transform="translate(486,394)"/><path fill="#F5A804" d="M0 0 C0.33 0.66 0.66 1.32 1 2 C0.54455276 3.10459706 0.54455276 3.10459706 0.07990456 4.23150921 C-1.17034891 7.43671397 -1.26122364 9.86037464 -1.2784729 13.29585266 C-1.28963638 14.56484909 -1.30079987 15.83384552 -1.31230164 17.14129639 C-1.31466637 18.5399167 -1.31684206 19.93853733 -1.31884766 21.3371582 C-1.32814972 22.81571499 -1.33831881 24.29426654 -1.34928894 25.77281189 C-1.37657169 29.78064135 -1.39173322 33.78843569 -1.40471697 37.79633355 C-1.42035505 41.9870813 -1.44714312 46.17775741 -1.4727478 50.36845398 C-1.51952358 58.30143718 -1.55627351 66.23443388 -1.58942068 74.16748446 C-1.62765054 83.20012095 -1.67705845 92.23268548 -1.72740483 101.26526129 C-1.83070683 119.84345485 -1.91997287 138.42169234 -2 157 C-4.69159439 154.30840561 -4.25574485 152.9533899 -4.26742554 149.1879425 C-4.27595551 147.9500145 -4.28448547 146.71208649 -4.29327393 145.43664551 C-4.29257483 144.05712878 -4.29165172 142.67761215 -4.29052734 141.2980957 C-4.29650918 139.85104524 -4.30331393 138.40399799 -4.31088257 136.95695496 C-4.32859055 133.01869548 -4.33324011 129.08052285 -4.33451414 125.14222741 C-4.33641134 121.85468823 -4.34376729 118.56716937 -4.35085833 115.27963799 C-4.36716009 107.52015514 -4.37202587 99.76071871 -4.37060547 92.0012207 C-4.36940533 84.00096897 -4.39047736 76.00098759 -4.4220928 68.00080425 C-4.44826883 61.13190865 -4.45897212 54.26310123 -4.45769465 47.39415616 C-4.45718516 43.29199974 -4.46286016 39.19008316 -4.48405075 35.08797646 C-4.50345423 31.22602746 -4.50354352 27.36454641 -4.48901749 23.50258064 C-4.48693048 22.08807439 -4.49162395 20.67353871 -4.5037384 19.25908279 C-4.60917066 6.09177377 -4.60917066 6.09177377 0 0 Z" transform="translate(254,286)"/><path fill="#EDECE4" d="M0 0 C0 0.66 0 1.32 0 2 C-3.13498292 3.85776765 -5.37471432 4.20140476 -9 4 C-9 4.66 -9 5.32 -9 6 C-11.64 6.33 -14.28 6.66 -17 7 C-16.67 6.01 -16.34 5.02 -16 4 C-13.34765625 3.0859375 -13.34765625 3.0859375 -10.0625 2.375 C-6.79942916 1.6516017 -3.25111848 0 0 0 Z M-23 7 C-21.02 7 -19.04 7 -17 7 C-17 7.33 -17 7.66 -17 8 C-18.98 8 -20.96 8 -23 8 C-23 7.67 -23 7.34 -23 7 Z" transform="translate(370,660)"/><path fill="#F7F8F4" d="M0 0 C4.67738207 4.45464959 6.36657886 7.41242017 7 14 C3.94998169 10.33997803 0 4.92148529 0 0 Z" transform="translate(826,515)"/><path fill="#EEECE7" d="M0 0 C0 0.66 0 1.32 0 2 C-5.95703125 3.7578125 -5.95703125 3.7578125 -8 4 C-8.99 3.34 -9.98 2.68 -11 2 C-9.5422647 1.664061 -8.08378894 1.33133376 -6.625 1 C-5.40683594 0.7215625 -5.40683594 0.7215625 -4.1640625 0.4375 C-2 0 -2 0 0 0 Z" transform="translate(312,471)"/><path fill="#E9E9E5" d="M0 0 C0 0.99 0 1.98 0 3 C-3.3 2.67 -6.6 2.34 -10 2 C-6.3558226 -0.4294516 -4.28758728 -0.16179575 0 0 Z" transform="translate(762,468)"/><path fill="#EFEEE8" d="M0 0 C0.66 0.33 1.32 0.66 2 1 C1.67 3.31 1.34 5.62 1 8 C0.01 7.34 -0.98 6.68 -2 6 C-1.34 4.02 -0.68 2.04 0 0 Z" transform="translate(836,593)"/></svg>